<?xml version="1.0" encoding="utf-8"?>

<svg xmlns="http://www.w3.org/2000/svg" xmlns:xlink="http://www.w3.org/1999/xlink" 
  height="512" width="512" viewBox="0 0 512 512">

  <image href="https://s0.gifyu.com/images/hello_kitty_Hello_Kitty_Head_ClipArt_in_PNG_File.png" height="512" width="512" />

  <rect width="512" height="512" stroke="red" fill="rgba(255,255,255,0.95)" opacity="0.95" ></rect>

  <text x="2" y="12" font-size="12" text-anchor="start" fill="red">0</text>
  <path d="M256  64 H0 H512" stroke="lightgray" fill="white"></path>
  <text x="2" y="68" font-size="12" text-anchor="start" fill="red">64</text>
  <path d="M256 128 H0 H512" stroke="lightgray" fill="white"></path>
  <text x="2" y="132" font-size="12" text-anchor="start" fill="red">128</text>
  <path d="M256 192 H0 H512" stroke="lightgray" fill="white"></path>
  <text x="2" y="196" font-size="12" text-anchor="start" fill="red">192</text>
  <path d="M256 256 H0 H512" stroke="lightgray" fill="white"></path>
  <text x="2" y="260" font-size="12" text-anchor="start" fill="red">256</text>
  <path d="M256 320 H0 H512" stroke="lightgray" fill="white"></path>
  <text x="2" y="324" font-size="12" text-anchor="start" fill="red">320</text>
  <path d="M256 384 H0 H512" stroke="lightgray" fill="white"></path>
  <text x="2" y="388" font-size="12" text-anchor="start" fill="red">384</text>
  <path d="M256 448 H0 H512" stroke="lightgray" fill="white"></path>
  <text x="2" y="452" font-size="12" text-anchor="start" fill="red">448</text>
  <text x="2" y="510" font-size="12" text-anchor="start" fill="red">512</text>

  <path d="M64  0 V512" stroke="lightgray" fill="white"></path>
  <text x="58" y="12" font-size="12" text-anchor="start" fill="red">64</text>
  <path d="M128  0 V512" stroke="lightgray" fill="white"></path>
  <text x="118" y="12" font-size="12" text-anchor="start" fill="red">128</text>
  <path d="M195  0 V512" stroke="lightgray" fill="white"></path>
  <text x="186" y="12" font-size="12" text-anchor="start" fill="red">192</text>
  <path d="M256  0 V512" stroke="lightgray" fill="white"></path>
  <text x="246" y="12" font-size="12" text-anchor="start" fill="red">256</text>
  <path d="M320  0 V512" stroke="lightgray" fill="white"></path>
  <text x="310" y="12" font-size="12" text-anchor="start" fill="red">320</text>
  <path d="M384  0 V512" stroke="lightgray" fill="white"></path>
  <text x="374" y="12" font-size="12" text-anchor="start" fill="red">384</text>
  <path d="M448  0 V512" stroke="lightgray" fill="white"></path>
  <text x="438" y="12" font-size="12" text-anchor="start" fill="red">448</text>
  <text x="492" y="12" font-size="12" text-anchor="start" fill="red">512</text>

  <path d="M256 256 V270 V242 M256 256 H270 H242" stroke="black" fill="white"></path>

  <text x="254" y="250" font-size="16" text-anchor="middle" fill="red">(256, 256)</text>

  <ellipse fill="#77DD47" stroke="#246614" stroke-width="5" cx="256" cy="270" rx="200" ry="150" opacity="0.2"/>












  <path d="M456 270 A200 155, 0, 0, 0, 56 270" stroke-width="10" stroke="#F00" fill="none" opacity="0.3"/>

  <path d="M456 270 A200 155, 0, 0, 1, 56 270" stroke-width="10" stroke="#F00" fill="none" opacity="0.3"/>

  <path d="M448 230 A100 60, -40, 0, 0, 430 150" stroke-width="10" stroke="#F00" fill="none" opacity="0.3"/>

  <path d="M430 150 A200 70, -50, 0, 0, 345 110" stroke-width="10" stroke="#F00" fill="none" opacity="0.3"/>

  <path d="M345 110 A200 70, 450, 0, 0, 270 110" stroke-width="10" stroke="#F00" fill="none" opacity="0.3"/>

  <path d="M85 192 A150 70, 50, 0, 1, 179 125" stroke-width="10" stroke="#F00" fill="none" opacity="0.3"/>


  <path d="M100 330 A5 1, -10, 0, 0, 40 340" stroke-width="10" stroke="#F00" fill="none" opacity="0.3"/>

  <path d="M100 300 A11 3, 0, 0, 0, 10 300" stroke-width="10" stroke="#F00" fill="none" opacity="0.3"/>

  <path d="M110 360 A11 3, -20, 0, 0, 50 390" stroke-width="10" stroke="#F00" fill="none" opacity="0.3"/>


  <path d="M420 330 A5 1, 0, 0, 1, 490 330" stroke-width="10" stroke="#F00" fill="none" opacity="0.3"/>

  <path d="M420 290 A5 1, 0, 0, 1, 500 280" stroke-width="10" stroke="#F00" fill="none" opacity="0.3"/>

  <path d="M400 360 A5 1, 10, 0, 1, 470 380" stroke-width="10" stroke="#F00" fill="none" opacity="0.3"/>







</svg>
    