<?xml version="1.0" standalone="no"?>
<!DOCTYPE svg PUBLIC "-//W3C//DTD SVG 1.1//EN" "http://www.w3.org/Graphics/SVG/1.1/DTD/svg11.dtd" >
<svg xmlns="http://www.w3.org/2000/svg" xmlns:xlink="http://www.w3.org/1999/xlink" version="1.1" viewBox="-10 0 266 256">
   <path fill="currentColor"
d="M202 109q1 -7 16 7q4 5 -2 7q-11 3 -28 18h1q15 -2 16 0q0 5 -3 5q-14 1 -29 5q-1 6 -3 19q-1 10 -1 14q21 -3 37 -8q-2 -3 -8 -9q-3 -3 -4 -6q-4 -4 2 -2q25 21 31 29q4 9 -3 10q-5 2 -7 -4l-10 -15q-41 14 -79 21q-7 2 -6 -3q0 -5 9 -9q5 -3 5 0q2 3 20 0q4 -1 6 -2
q1 -9 3 -30q0 -2 1 -3q-5 1 -16 4q0 1 1 3q2 3 3 3q1 6 -3 5q-11 -1 -13 -11q-6 -18 -7 -30q0 -3 2 0q7 17 14 26q10 -2 20 -5v-13q1 -7 1 -10q-7 3 -22 7q-2 1 -3 0q-1 -2 1 -3q4 -1 15 -6q6 -2 8 -3q0 -16 -6 -26q-2 -3 -1 -3q1 -1 4 1q17 10 13 25q2 0 4 -1q8 -2 15 -3
q4 0 6 -4zM106 34q11 0 13 3q3 5 -2 6q-11 4 -18 14l-6 8q-9 15 -19 26q-5 6 1 2q7 -2 12 -9q1 -3 16 -1q3 1 3 2q0 2 -3 3q-11 1 -33 39q-2 3 -1 4q0 1 3 -1q17 -12 26 -12q3 0 12 7q0 2 0 1q3 4 1 5q-6 5 -8 12q-15 39 -35 60q-5 3 -8 10q-1 2 -2 3q-1 0 -2 -2
q-8 -10 -9 -30q-1 -6 2 0q3 12 9 18q2 2 7 0q24 -25 32 -75q0 -3 -1 -5q-1 -1 -3 0q-28 16 -36 24q-2 2 -3 2v-2q1 -6 5 -10q4 -3 20 -34q1 -3 -1 -2q-4 1 -10 5q-2 1 -3 1q-3 2 -4 1q-1 0 0 -3q1 -8 5 -9q1 0 3 -2l3 -3q16 -24 27 -48q-10 2 -24 7q-10 3 -19 1q-3 0 -3 -1
t3 -2q4 -1 9 -2q19 -5 29 -7q5 1 6 -2q0 -2 6 -2zM189 62q-2 -2 -5 -6t2 -2q21 16 31 22q1 2 0 5q-1 2 -3 1q-10 -3 -17 -9q-10 5 -29 7q-14 2 -30 10q-4 2 -5 -1q-4 -8 1 -7q1 2 3 1q1 -3 6 -10q13 -22 17 -33q3 -5 4 -14q-1 -1 0 -2h3q3 2 8 4q3 1 5 1q4 4 -1 6
q-9 1 -28 31q-5 7 -11 17h3q4 -1 7 -2q8 -3 30 -8q9 -2 11 -6q-2 -1 -2 -5zM198 117q-4 0 -16 4q-4 2 -6 2q-2 13 -2 23q11 -6 26 -26q1 -1 0 -2q0 -1 -2 -1z" />
</svg>
