<?xml version="1.0" standalone="no"?>
<!DOCTYPE svg PUBLIC "-//W3C//DTD SVG 1.1//EN" "http://www.w3.org/Graphics/SVG/1.1/DTD/svg11.dtd" >
<svg xmlns="http://www.w3.org/2000/svg" xmlns:xlink="http://www.w3.org/1999/xlink" version="1.1" viewBox="-10 0 266 256">
   <path fill="currentColor"
d="M118 32q6 -3 22 16q3 4 0 6q-5 1 -7 7q-10 28 -25 48q-8 7 -13 16q-3 4 -6 -1q-4 -6 -8 -11q-5 -5 -6 -10q-2 -6 2 -2q8 12 16 14q3 3 9 -4q20 -22 28 -59q1 -16 -10 -18q-22 1 -45 11q-16 6 -29 3q-5 -1 0 -2q4 -1 11 -2q12 -2 19 -5q21 -7 42 -7zM199 37q6 7 12 12
q2 3 1 4q-1 2 -4 2q-8 2 -12 13q-11 27 -20 35q35 15 50 38q2 4 1 6t-4 1q-5 0 -11 -2q-8 -2 -14 -4q-12 0 -37 -12q-1 9 -1 22q-2 40 2 65q7 8 12 17q-1 4 -5 4q-6 -4 -9 -8q-1 -2 -3 -4q-3 -4 -6 -6q-5 -6 6 -16q0 -45 -1 -66q0 -24 -1 -70q0 -12 -5 -15q-3 -2 1 -2
q5 0 10 3q4 2 2 4q-3 6 -2 14v55q19 10 41 8q9 1 9 -1q2 -2 -4 -8q-8 -6 -27 -15q-4 -2 -8 -5q-3 0 -3 -1t3 -3q12 -13 23 -50q0 -5 -5 -5q-9 3 -24 5h-3q-6 0 0 -2q1 0 4 -1q14 -5 21 -9q4 -5 11 -3zM113 129q2 -4 8 -1q0 1 1 2q6 4 10 7q1 2 1 4q-1 1 -3 1q-5 1 -8 5
q-6 10 -14 16q10 -2 15 2q2 4 -2 5q-4 2 -10 0q-11 -1 -27 3q3 2 3 5q0 2 -3 2q-6 1 -15 -5l-2 -2q-6 -4 -4 -11q1 -2 -1 -4q-3 -6 -7 -12q-1 -2 3 -1q7 9 10 14q4 8 12 11q5 -2 19 -5l6 -2q-2 -3 3 -8q5 -7 13 -19q-1 -3 -4 -3q-26 10 -51 14q-5 2 -1 -2q22 -9 38 -12
q5 -1 10 -4zM31 139q-4 4 -1 -2q37 -34 63 -80q4 -6 4 -11q0 -3 2 -1q5 5 3 8q-4 4 -6 9q-25 46 -65 77z" />
</svg>
