<?xml version="1.0" standalone="no"?>
<!DOCTYPE svg PUBLIC "-//W3C//DTD SVG 1.1//EN" "http://www.w3.org/Graphics/SVG/1.1/DTD/svg11.dtd" >
<svg xmlns="http://www.w3.org/2000/svg" xmlns:xlink="http://www.w3.org/1999/xlink" version="1.1" viewBox="-10 0 267 256">
   <path fill="currentColor"
d="M151 87q14 10 11 11q-4 6 -3 16q2 0 12 -3q15 -3 19 -5q4 -4 8 -4q13 3 20 7q0 2 -1 4q-1 1 -3 -1q-8 -2 -20 0q-11 1 -35 7v16q19 33 38 53q4 7 14 7q21 3 35 9q1 0 0 0h-8q-17 -1 -27 -1q-9 0 -16 -11q-21 -23 -36 -48q-2 41 1 66q1 9 5 18q0 4 -6 4q-4 -2 -5 -7
q-2 -7 -7 -14q-5 -6 -9 -13q-2 -5 2 -1q1 3 6 7t7 7q0 1 1 0q1 0 2 -2q-1 -7 -1 -19q-1 -19 0 -46q-21 42 -48 58q-5 2 -1 -2q28 -19 47 -64q-2 -2 -5 -7q-2 -3 -2 -5q-2 1 -10 4q-11 5 -21 2q-3 -1 1 -2q10 -2 29 -9q5 -2 8 -3q0 -22 -3 -27q-3 -4 1 -2zM146 -5q-3 -3 2 -1
q20 14 15 19q-5 8 -11 19q32 -5 37 -9v-1q1 -4 6 -3q5 2 13 5q3 2 8 3q2 2 1 5q0 2 -3 0q-19 -3 -65 6q-13 19 -29 25q-5 3 -1 -1q14 -9 21 -23q-10 2 -29 4q-11 2 -14 2q1 5 3 10q1 8 -3 7q-8 0 -13 -14q-14 5 -36 -2q-5 -1 1 -2q15 2 33 -3q-3 -11 -8 -20v-3q-2 -2 -1 -3
t3 0q1 2 2 3q13 14 16 21q32 -2 48 -6q8 -13 11 -25q2 -4 -7 -13zM68 163l8 -5q1 -2 1 -17q-11 4 -15 3q-5 1 -1 -1l16 -6q-1 -2 -1 -5q-1 -9 -2 -12q-7 3 -14 2q-4 -1 0 -2q10 -3 16 -5q10 -4 22 -8q5 -1 11 3q3 4 7 8q3 2 4 2q1 4 -1 5q-6 2 -7 9q-4 19 -10 29
q-4 11 -18 3q-3 -1 -2 -2l3 -1q9 4 14 -4q9 -19 7 -38q-2 -10 -6 -9q-13 2 -23 6q8 9 6 8v8q5 -2 1 0q4 -2 9 -1q3 1 2 4q-3 0 -6 1h-4q-3 1 -4 4v1v13q6 -3 12 -3l2 2q0 1 -1 1l-4 2q-19 8 -21 7q0 5 -3 4q-4 0 -6 -4q-1 0 -5 -1q-5 0 -3 -6q2 -3 1 -6q-4 -4 -4 -14
q-1 -10 -2 -14q-3 -5 9 -13q6 -5 17 -12q6 -4 14 -10q3 -2 -1 -2q-2 0 -5 1h-2q-2 0 -2 -1t2 -2q12 -4 18 -7q4 -4 8 -2q1 1 4 2q3 2 5 2q2 2 1 4q0 1 -2 1q-10 0 -25 9q-7 5 -14 9q-10 6 -17 10q-8 5 -7 10q0 27 18 40zM172 59q2 4 6 3q6 4 8 5t1 2q-2 3 -6 1q-2 -2 -14 3
q-27 13 -43 15q-2 1 0 -1q19 -7 38 -19q8 -4 4 -7q1 -2 6 -2zM77 68q7 6 1 10q-23 24 -35 31q-4 2 -4 1t3 -4q15 -10 28 -27q4 -4 5 -11q-1 -3 2 0zM39 195q3 9 8 9h2q1 0 1 2q-1 2 2 6q1 1 1 3q-1 1 -3 2q-4 0 -7 -4l-1 -1q-6 -8 -5 -17q0 -4 2 0zM80 177q-2 -2 0 -1
q12 8 13 14q1 4 -2 6q-6 -1 -11 -19zM61 184q5 1 11 14q1 5 -1 5q-6 0 -10 -17q-2 -4 0 -2zM101 171q8 8 15 14q1 5 -2 6q-4 -1 -7 -7q-2 -5 -7 -11q-2 -4 1 -2z" />
</svg>
