<?xml version="1.0" standalone="no"?>
<!DOCTYPE svg PUBLIC "-//W3C//DTD SVG 1.1//EN" "http://www.w3.org/Graphics/SVG/1.1/DTD/svg11.dtd" >
<svg xmlns="http://www.w3.org/2000/svg" xmlns:xlink="http://www.w3.org/1999/xlink" version="1.1" viewBox="-10 0 266 256">
   <path fill="currentColor"
d="M155 16q17 2 29 13q1 2 -1 4q-11 2 -21 15t-28 27l12 6q1 1 0 2q-2 2 -1 11q25 -2 41 -3q4 0 6 -1q2 -4 8 -7q1 0 2 -1q5 -3 10 0v1q7 4 22 9q8 4 5 8q-3 6 -5 4q-6 0 -12 -4q-12 -7 -30 -5q-23 2 -46 5q5 99 -20 119q-5 3 -9 1q-8 -5 -27 -9q-16 -4 -31 -12q-3 -1 1 -1
q18 6 52 11q14 4 21 -6q12 -25 5 -102q-75 14 -81 20q-13 7 -25 3q-20 -2 -21 -3q-2 0 -2 -1q1 -1 3 -2q12 0 23 -2q10 -2 28 -6q54 -12 74 -15q-2 -11 -9 -13q-2 0 -6 -2t-7 -4t1 -2q11 0 16 1q14 -18 23 -37q4 -6 2 -9t-9 0q-31 11 -51 21q-16 8 -16 6q-5 -1 -6 -8
q-1 -1 -2 -4q-1 -2 -1 -4q-2 -2 1 -1q4 4 6 8q1 2 8 0l1 -1q5 -1 23 -8q24 -8 32 -11q1 0 2 -1q5 -2 5 -6q1 -4 5 -4z" />
</svg>
