<?xml version="1.0" standalone="no"?>
<!DOCTYPE svg PUBLIC "-//W3C//DTD SVG 1.1//EN" "http://www.w3.org/Graphics/SVG/1.1/DTD/svg11.dtd" >
<svg xmlns="http://www.w3.org/2000/svg" xmlns:xlink="http://www.w3.org/1999/xlink" version="1.1" viewBox="-10 0 273 256">
   <path fill="currentColor"
d="M137 30q2 3 2 4q-1 2 -4 2q-10 -3 -36 8q-4 2 -5 0q0 -1 4 -3q1 -1 5 -3q3 -2 5 -4q4 -4 0 -6q-3 0 -6 -3t2 -4q8 2 12 0q6 -2 21 9zM188 45q5 3 13 9q2 5 -4 5q-26 -8 -63 15q-5 1 -2 -2q3 0 8 -4q3 -2 -2 -1q-30 10 -57 18q-6 2 -10 3q-16 6 -24 -2q-3 -1 -2 -2t4 -1
q17 4 109 -27q17 -5 23 -11q3 -3 7 0zM128 89q-2 -5 2 -1q3 6 12 8q2 2 2 5q-2 2 -4 1q-4 -1 -5 4q-11 25 -21 39q26 32 59 53q5 6 20 3q28 -3 57 3q3 0 3 1t-3 2q-22 -2 -31 -2q-11 0 -21 3q-14 2 -25 -4q-41 -27 -61 -55q-30 38 -55 52q-6 3 -1 -2q27 -20 53 -54
q-4 -5 -7 -9q-5 -7 -7 -11q-6 -6 -14 -5q-2 0 -3 -1q0 -1 2 -2q11 -4 13 0q4 5 13 17q3 4 6 7q14 -22 17 -36q2 -10 -1 -16z" />
</svg>
