<?xml version="1.0" standalone="no"?>
<!DOCTYPE svg PUBLIC "-//W3C//DTD SVG 1.1//EN" "http://www.w3.org/Graphics/SVG/1.1/DTD/svg11.dtd" >
<svg xmlns="http://www.w3.org/2000/svg" xmlns:xlink="http://www.w3.org/1999/xlink" version="1.1" viewBox="-10 0 266 256">
   <path fill="currentColor"
d="M72 32q5 -6 21 11q4 7 -2 8q-8 2 -9 16q-3 8 -4 22q-1 13 0 33q16 -21 24 -30q4 -4 1 1q-6 10 -11 19q-10 17 -13 22q0 27 1 36q1 10 4 18q18 -53 28 -99q1 -8 -2 -14q-2 -3 2 -6q3 -1 2 1q-4 6 8 9q2 1 3 4q-1 2 -3 3q-5 -2 -11 29q5 1 18 -3q27 -7 63 -12q7 -1 10 -6
q2 -4 10 -2l14 6q1 1 1 3q-1 1 -2 1q-13 -2 -26 -1q-34 6 -68 15q-14 5 -21 2q-6 23 -18 61q-3 8 -5 16q-15 37 -26 44q-4 2 -1 -2q11 -19 23 -45q-5 -1 -7 -11q-5 -18 -11 -30q-16 18 -27 25q-3 4 -7 -1q-2 -3 3 -4q5 -2 18 -16q-14 -13 -6 -17q2 -3 2 -7q0 -25 2 -43
q1 -20 -1 -33q-1 -3 2 -1q6 8 6 17q-1 3 -2 10t-1 9q12 -7 19 -7q-1 -15 0 -23q1 -7 3 -18q0 -3 -2 -3q-1 -1 -3 0q-15 5 -25 6q-2 0 -2 -1t2 -2q16 -4 26 -10zM132 56q-10 3 -23 6q-9 2 -14 -1q-3 -1 0 -2q13 -2 15 -3q33 -19 58 -46q2 -3 -2 -1t-11 5q-14 6 -25 12
q-7 4 -12 13q-5 3 -5 -1q-1 -8 5 -13q5 -6 15 -24q0 -2 1 -2t2 2q1 13 -1 14q-1 1 -2 3l-2 4q13 -7 33 -15q2 -1 5 -2q4 -1 7 -6q3 -4 8 -2q4 3 9 6q2 1 2 2q0 2 -2 2q-16 7 -27 15q-25 21 -44 32q7 -2 26 -7q11 -3 17 -5q5 -1 11 -6q0 -5 7 -4q4 1 3 1q9 0 14 2q3 4 -1 5
q-11 0 -25 4q-8 3 -26 8q-9 3 -14 4q1 2 5 4q3 1 5 1q1 1 3 2q1 5 -2 9t-7 11q-3 7 -12 6q-2 0 0 -2q9 -4 13 -18q1 -7 -1 -7h-1q-5 -3 -5 -6zM179 174q2 -5 15 5q2 2 1 4q0 1 -2 1q-4 2 -7 6q-2 2 -5 6q-3 2 -3 3q7 2 14 1q3 0 5 4q1 0 -2 1q-6 1 -12 -1q-7 0 -20 1
q3 2 0 5q-6 0 -7 -1q-2 -3 -7 -4q-9 0 -5 -11q1 -3 2 0q5 10 15 10q14 -5 19 -21v-2h-3q-14 6 -25 6q-3 0 0 -2q9 -4 15 -5l4 -2q3 0 6 -3q0 1 2 -1zM73 112q-8 3 -13 8q-5 4 -2 -2q-3 2 -5 1q-1 10 0 16q1 7 3 14q10 -10 17 -21v-16zM171 146q4 2 10 1q3 2 0 4
q-21 10 -32 22q-5 4 -2 -2q1 -1 4 -5t4 -5q2 -2 -2 -2q-18 9 -19 1q-1 -4 2 -2q3 4 20 -4q6 -2 10 -6q1 -2 5 -2zM170 122h10q1 1 1 2q-1 1 -2 1q-10 6 -24 17q-7 5 -1 -2q3 -3 3 -5q-1 -1 -3 -1q-16 6 -24 1q-1 -1 1 -2q5 3 26 -6q5 -1 7 -4q1 -2 6 -1zM73 90q-13 7 -19 6
q-1 4 -1 9q-1 7 -1 9q3 1 9 -4q4 -4 12 -6v-14zM164 53q-1 -2 1 -1q2 2 7 3q10 5 15 6q10 2 16 13q1 2 -4 2q-3 1 -5 -1q-5 -4 -16 -8h-3q-1 -1 2 -3q2 0 -2 -3q-7 -4 -11 -8zM146 81q-3 0 0 -2q25 4 29 15q-4 4 -7 2q-5 -3 -11 -2h-4q-1 -2 1 -3q1 -2 0 -4q-2 -3 -8 -6z
M74 139q-2 2 -4 5q-2 4 -3 5q1 3 5 7q2 2 3 2q0 -3 -1 -9t0 -10z" />
</svg>
